<svg id="eNasU2ckClJ1" xmlns="http://www.w3.org/2000/svg" xmlns:xlink="http://www.w3.org/1999/xlink" viewBox="0 0 512 512" shape-rendering="geometricPrecision" text-rendering="geometricPrecision" project-id="26204555d2e64bda8553e60341b4897f" export-id="6338b143ed7b428c81094ef9f05b4e60" cached="false"><g><ellipse rx="48.731926" ry="50.356319" transform="matrix(4.30929 0 0 4.170281 256 255.999923)" fill="#bd1e71" stroke="#000" stroke-width="3"/><g transform="matrix(.086559 0 0-.065343 34.815514 423.256721)"><path d="M1275,4787c-130-43-241-157-332-342-120-241-167-537-128-798c33-220,131-412,257-506l50-36-5-690c-5-698-10-811-49-1145-29-247-31-530-4-645c23-103,77-206,128-246c102-81,257-76,346,11c51,48,87,118,114,218c28,103,31,412,5,612-42,329-49,468-54,1185l-5,700l49,36c177,131,286,435,270,754-19,389-205,771-426,873-64,29-159,38-216,19Zm155-167c189-96,345-502,327-845-15-266-115-473-264-546-69-34-197-34-266,0-109,54-193,180-238,356-31,119-33,355-6,485c54,251,173,473,291,540c60,35,102,38,156,10Zm13-2240c5-675,10-789,49-1120c41-348,29-616-33-717-51-82-147-82-198,0-62,101-74,369-33,717c39,329,44,445,49,1120l5,665h78h78l5-665Z"/><path d="M1298,4418c-86-92-178-378-178-555c0-65,29-103,80-103c55,0,76,33,83,131c10,147,70,335,136,428c28,39,26,76-4,106-35,36-79,33-117-7Z"/><path d="M2184,4775l-25-25l3-617c4-715-10-617,130-898c47-93,91-195,98-225c9-42,11-200,7-650-5-621-10-719-54-1090-32-272-36-520-9-640c36-162,109-265,208-295c190-56,326,39,390,273c28,103,31,412,5,612-41,316-48,475-54,1109-4,478-2,638,7,680c7,31,53,137,102,235c135,270,128,219,128,918v589l-25,24c-15,16-36,25-55,25s-40-9-55-25l-25-24v-376-375h-55-55v375v376l-25,24c-33,33-70,32-106-4l-29-29v-371-371h-50-50v371v371l-29,29c-36,36-73,37-106,4l-25-24v-376-375h-55-55v375v376l-25,24c-32,33-78,33-111,0Zm776-1062c0-75-6-149-14-178-7-27-51-126-98-220-135-270-123-179-123-915c0-662,6-800,47-1145c41-342,29-612-33-712-56-90-164-82-213,15-58,115-65,331-23,702c45,390,48,461,54,1097c6,735,13,680-119,946-50,100-97,205-104,232-8,30-14,102-14,178v127h320h320v-127Z"/><path d="M3658,4780c-42-12-84-46-110-88l-23-37-6-1465c-6-1514-7-1544-51-1920-29-247-31-530-4-645c23-103,77-206,128-246c102-81,257-76,346,11c51,48,87,118,114,218c30,111,30,407,0,657-27,224-39,401-48,665l-7,205l38,64c284,482,353,1117,180,1666-56,179-322,825-353,858-52,56-133,79-204,57Zm225-495c76-187,153-387,173-445c72-215,99-418,91-665-10-301-65-518-198-793l-70-142h-99-100v1183c0,927,3,1186,12,1195c7,7,22,11,33,10c16-2,45-66,158-343Zm-35-2467c12-254,23-383,58-703c27-253,9-482-47-572-51-81-147-81-198,0-56,90-74,319-47,572c35,315,45,445,57,701l12,264h77h76l12-262Z"/></g></g></svg>
